HIERARCHY
ROOT Hips
{
	OFFSET 0.000000 100.481300 0.000000
	CHANNELS 6 Xposition Yposition Zposition Xrotation Yrotation Zrotation 
	JOINT Spine
	{
		OFFSET -0.279200 12.230698 -2.892100
		CHANNELS 3 Xrotation Yrotation Zrotation
		JOINT Spine1
		{
			OFFSET -0.232667 10.192268 -1.242267
			CHANNELS 3 Xrotation Yrotation Zrotation
			JOINT Spine1_split
			{
				OFFSET -0.232667 10.192268 -1.242267
				CHANNELS 3 Xrotation Yrotation Zrotation
				JOINT Spine2
				{
					OFFSET -0.232667 10.192268 -1.242267
					CHANNELS 3 Xrotation Yrotation Zrotation
					JOINT Neck
					{
						OFFSET -0.418800 17.814194 8.416900
						CHANNELS 3 Xrotation Yrotation Zrotation
						JOINT Head
						{
							OFFSET 0.000000 7.031097 3.806800
							CHANNELS 3 Xrotation Yrotation Zrotation
							JOINT HeadTop_End
							{
								OFFSET 0.000000 24.646606 12.978600
								CHANNELS 3 Xrotation Yrotation Zrotation
								End Site
								{
									OFFSET 0.000000 0.000000 0.000000
								}
							}
						}
					}
					JOINT LeftShoulder
					{
						OFFSET 8.476499 7.247704 -3.868750
						CHANNELS 3 Xrotation Yrotation Zrotation
						JOINT LeftShoulder_split
						{
							OFFSET 8.476499 7.247704 -3.868750
							CHANNELS 3 Xrotation Yrotation Zrotation
							JOINT LeftArm
							{
								OFFSET 9.308998 -2.777710 0.208600
								CHANNELS 3 Xrotation Yrotation Zrotation
								JOINT LeftForeArm
								{
									OFFSET 29.972298 0.000000 0.000000
									CHANNELS 3 Xrotation Yrotation Zrotation
									JOINT LeftHand
									{
										OFFSET 26.026505 0.000000 0.000000
										CHANNELS 3 Xrotation Yrotation Zrotation
										JOINT LeftHandThumb1
										{
											OFFSET 12.240501 -7.147949 9.207150
											CHANNELS 3 Xrotation Yrotation Zrotation
											JOINT LeftHandThumb2
											{
												OFFSET 4.138618 -2.389435 2.389433
												CHANNELS 3 Xrotation Yrotation Zrotation
												JOINT LeftHandThumb3
												{
													OFFSET 2.726913 -1.574387 1.574386
													CHANNELS 3 Xrotation Yrotation Zrotation
													JOINT LeftHandThumb4
													{
														OFFSET 3.941010 -2.275345 2.275342
														CHANNELS 3 Xrotation Yrotation Zrotation
														End Site
														{
															OFFSET 0.000000 0.000000 0.000000
														}
													}
												}
											}
										}
										JOINT LeftHandIndex1
										{
											OFFSET 24.424698 -1.985611 5.953459
											CHANNELS 3 Xrotation Yrotation Zrotation
											JOINT LeftHandIndex2
											{
												OFFSET 6.426697 0.000000 0.000000
												CHANNELS 3 Xrotation Yrotation Zrotation
												JOINT LeftHandIndex3
												{
													OFFSET 5.337898 0.000000 0.000000
													CHANNELS 3 Xrotation Yrotation Zrotation
													JOINT LeftHandIndex4
													{
														OFFSET 4.409401 0.000000 0.000000
														CHANNELS 3 Xrotation Yrotation Zrotation
														End Site
														{
															OFFSET 0.000000 0.000000 0.000000
														}
													}
												}
											}
										}
										JOINT LeftHandMiddle1
										{
											OFFSET 23.810104 0.000000 0.000000
											CHANNELS 3 Xrotation Yrotation Zrotation
											JOINT LeftHandMiddle2
											{
												OFFSET 7.176498 0.000000 0.000000
												CHANNELS 3 Xrotation Yrotation Zrotation
												JOINT LeftHandMiddle3
												{
													OFFSET 6.774902 0.000000 0.000000
													CHANNELS 3 Xrotation Yrotation Zrotation
													JOINT LeftHandMiddle4
													{
														OFFSET 5.403328 0.000000 0.000000
														CHANNELS 3 Xrotation Yrotation Zrotation
														End Site
														{
															OFFSET 0.000000 0.000000 0.000000
														}
													}
												}
											}
										}
										JOINT LeftHandRing1
										{
											OFFSET 22.908401 -0.839279 -6.020567
											CHANNELS 3 Xrotation Yrotation Zrotation
											JOINT LeftHandRing2
											{
												OFFSET 6.337502 0.000000 0.000000
												CHANNELS 3 Xrotation Yrotation Zrotation
												JOINT LeftHandRing3
												{
													OFFSET 5.779297 0.000000 0.000000
													CHANNELS 3 Xrotation Yrotation Zrotation
													JOINT LeftHandRing4
													{
														OFFSET 4.965698 0.000000 0.000000
														CHANNELS 3 Xrotation Yrotation Zrotation
														End Site
														{
															OFFSET 0.000000 0.000000 0.000000
														}
													}
												}
											}
										}
										JOINT LeftHandPinky1
										{
											OFFSET 20.037003 -1.530319 -10.950146
											CHANNELS 3 Xrotation Yrotation Zrotation
											JOINT LeftHandPinky2
											{
												OFFSET 5.254700 0.000000 0.000000
												CHANNELS 3 Xrotation Yrotation Zrotation
												JOINT LeftHandPinky3
												{
													OFFSET 4.810204 0.000000 0.000000
													CHANNELS 3 Xrotation Yrotation Zrotation
													JOINT LeftHandPinky4
													{
														OFFSET 3.647202 0.000000 0.000000
														CHANNELS 3 Xrotation Yrotation Zrotation
														End Site
														{
															OFFSET 0.000000 0.000000 0.000000
														}
													}
												}
											}
										}
									}
								}
							}
						}
					}
					JOINT RightShoulder
					{
						OFFSET -7.570500 7.247704 -3.868750
						CHANNELS 3 Xrotation Yrotation Zrotation
						JOINT RightShoulder_split
						{
							OFFSET -7.570500 7.247704 -3.868750
							CHANNELS 3 Xrotation Yrotation Zrotation
							JOINT RightArm
							{
								OFFSET -9.308998 -2.777710 0.208500
								CHANNELS 3 Xrotation Yrotation Zrotation
								JOINT RightForeArm
								{
									OFFSET -29.972300 0.000000 0.000000
									CHANNELS 3 Xrotation Yrotation Zrotation
									JOINT RightHand
									{
										OFFSET -26.026505 0.000000 0.000000
										CHANNELS 3 Xrotation Yrotation Zrotation
										JOINT RightHandThumb1
										{
											OFFSET -12.240601 -7.148026 9.207092
											CHANNELS 3 Xrotation Yrotation Zrotation
											JOINT RightHandThumb2
											{
												OFFSET -4.138618 -2.389435 2.389433
												CHANNELS 3 Xrotation Yrotation Zrotation
												JOINT RightHandThumb3
												{
													OFFSET -2.726974 -1.574417 1.574421
													CHANNELS 3 Xrotation Yrotation Zrotation
													JOINT RightHandThumb4
													{
														OFFSET -3.941010 -2.275345 2.275343
														CHANNELS 3 Xrotation Yrotation Zrotation
														End Site
														{
															OFFSET 0.000000 0.000000 0.000000
														}
													}
												}
											}
										}
										JOINT RightHandIndex1
										{
											OFFSET -24.424698 -1.985657 5.953444
											CHANNELS 3 Xrotation Yrotation Zrotation
											JOINT RightHandIndex2
											{
												OFFSET -6.426697 0.000000 0.000000
												CHANNELS 3 Xrotation Yrotation Zrotation
												JOINT RightHandIndex3
												{
													OFFSET -5.337898 0.000000 0.000000
													CHANNELS 3 Xrotation Yrotation Zrotation
													JOINT RightHandIndex4
													{
														OFFSET -4.409401 0.000000 0.000000
														CHANNELS 3 Xrotation Yrotation Zrotation
														End Site
														{
															OFFSET 0.000000 0.000000 0.000000
														}
													}
												}
											}
										}
										JOINT RightHandMiddle1
										{
											OFFSET -23.810097 0.000000 0.000000
											CHANNELS 3 Xrotation Yrotation Zrotation
											JOINT RightHandMiddle2
											{
												OFFSET -7.176498 0.000000 0.000000
												CHANNELS 3 Xrotation Yrotation Zrotation
												JOINT RightHandMiddle3
												{
													OFFSET -6.774902 0.000000 0.000000
													CHANNELS 3 Xrotation Yrotation Zrotation
													JOINT RightHandMiddle4
													{
														OFFSET -5.403328 0.000000 0.000000
														CHANNELS 3 Xrotation Yrotation Zrotation
														End Site
														{
															OFFSET 0.000000 0.000000 0.000000
														}
													}
												}
											}
										}
										JOINT RightHandRing1
										{
											OFFSET -22.908302 -0.839325 -6.020576
											CHANNELS 3 Xrotation Yrotation Zrotation
											JOINT RightHandRing2
											{
												OFFSET -6.337502 0.000000 0.000000
												CHANNELS 3 Xrotation Yrotation Zrotation
												JOINT RightHandRing3
												{
													OFFSET -5.779297 0.000000 0.000000
													CHANNELS 3 Xrotation Yrotation Zrotation
													JOINT RightHandRing4
													{
														OFFSET -4.965698 0.000000 0.000000
														CHANNELS 3 Xrotation Yrotation Zrotation
														End Site
														{
															OFFSET 0.000000 0.000000 0.000000
														}
													}
												}
											}
										}
										JOINT RightHandPinky1
										{
											OFFSET -20.037003 -1.530334 -10.950259
											CHANNELS 3 Xrotation Yrotation Zrotation
											JOINT RightHandPinky2
											{
												OFFSET -5.254700 0.000000 0.000000
												CHANNELS 3 Xrotation Yrotation Zrotation
												JOINT RightHandPinky3
												{
													OFFSET -4.810204 0.000000 0.000000
													CHANNELS 3 Xrotation Yrotation Zrotation
													JOINT RightHandPinky4
													{
														OFFSET -3.647202 0.000000 0.000000
														CHANNELS 3 Xrotation Yrotation Zrotation
														End Site
														{
															OFFSET 0.000000 0.000000 0.000000
														}
													}
												}
											}
										}
									}
								}
							}
						}
					}
				}
			}
		}
	}
	JOINT LeftUpLeg
	{
		OFFSET 15.427100 -6.655098 0.678600
		CHANNELS 3 Xrotation Yrotation Zrotation
		JOINT LeftLeg
		{
			OFFSET 4.081073 -39.591068 13.024000
			CHANNELS 3 Xrotation Yrotation Zrotation
			JOINT LeftFoot
			{
				OFFSET -4.081074 -37.707932 -15.979700
				CHANNELS 3 Xrotation Yrotation Zrotation
				JOINT LeftToeBase
				{
					OFFSET 5.346399 -15.068900 20.645000
					CHANNELS 3 Xrotation Yrotation Zrotation
					JOINT LeftToe_End
					{
						OFFSET 2.754700 0.931300 11.300900
						CHANNELS 3 Xrotation Yrotation Zrotation
						End Site
						{
							OFFSET 0.000000 0.000000 0.000000
						}
					}
				}
			}
		}
	}
	JOINT RightUpLeg
	{
		OFFSET -15.569500 -6.655098 0.678600
		CHANNELS 3 Xrotation Yrotation Zrotation
		JOINT RightLeg
		{
			OFFSET -4.081825 -39.591045 13.023800
			CHANNELS 3 Xrotation Yrotation Zrotation
			JOINT RightFoot
			{
				OFFSET 4.081824 -37.707954 -15.979600
				CHANNELS 3 Xrotation Yrotation Zrotation
				JOINT RightToeBase
				{
					OFFSET -5.346400 -15.068900 20.645000
					CHANNELS 3 Xrotation Yrotation Zrotation
					JOINT RightToe_End
					{
						OFFSET -2.754700 0.931300 11.300900
						CHANNELS 3 Xrotation Yrotation Zrotation
						End Site
						{
							OFFSET 0.000000 0.000000 0.000000
						}
					}
				}
			}
		}
	}
}
MOTION
Frames: 5
Frame Time: 0.016667
0.289060 78.876129 -0.157291 3.037468 -58.355080 6.232995 11.190424 0.276955 -2.458541 8.434587 0.027708 -5.592321 0.000000 0.000000 0.000000 8.457051 0.027846 -5.591861 -21.555706 25.063297 12.062585 -0.293968 25.465865 -3.208983 -0.000000 0.000000 -0.000000 -6.221661 -11.503837 -4.023810 0.000000 0.000000 0.000000 -23.062118 9.568713 -36.639638 0.046168 -43.169456 -0.011161 22.743714 -5.685673 15.979228 -1.060980 -7.956218 8.492268 2.373400 19.986131 -2.038324 0.808208 1.237718 2.631739 -0.000001 0.000000 -0.000001 13.340878 -1.006684 10.682275 -0.163436 0.317215 -31.105627 -0.145508 0.315601 -32.256200 0.000002 0.000000 -0.000003 8.500037 -0.329642 -0.915276 0.231520 0.661174 -29.901844 0.448924 0.208751 -44.357069 -0.000003 0.000000 0.000000 6.121115 3.156109 -16.211133 0.046242 0.321034 -30.125461 0.404065 0.818952 -42.140676 0.000000 0.000000 -0.000001 -5.637162 7.705243 -13.879846 0.225737 0.277898 -46.588369 0.266627 0.234395 -46.286853 -0.000001 0.000000 -0.000002 -5.488247 10.658292 2.466532 0.000000 0.000000 0.000000 -41.473790 -26.755639 30.079071 24.955326 111.863117 -23.308321 -8.702503 12.422960 -9.801961 0.262724 10.061695 -10.891926 1.381148 -17.410699 3.018928 3.345871 -13.256897 -8.254627 -0.000001 -0.000001 -0.000001 19.443604 11.174434 -13.340180 -0.109202 -0.315751 18.035663 -0.078885 -0.277413 23.256647 0.000000 -0.000002 -0.000002 4.320490 2.436956 -4.811718 0.344841 -0.463977 26.890299 0.460718 0.158670 39.044845 -0.000001 -0.000000 0.000000 -7.011552 -10.695706 5.718765 0.110928 -0.095435 26.155842 0.448145 -0.485634 33.265118 0.000002 0.000000 -0.000000 -19.433550 -20.238185 5.987855 0.209892 -0.086862 36.844622 0.256658 -0.056211 36.471684 -0.000000 -0.000000 -0.000002 -34.681938 8.729464 27.684333 40.318446 -8.743231 -10.519840 -7.477916 -1.697366 -10.847162 -0.353119 1.238182 0.776626 -0.000000 -0.000002 -0.000000 -31.023751 -7.189293 -29.208447 46.890649 5.288365 -6.185762 -19.301896 0.930648 23.072485 -0.348079 -0.997527 -0.768819 -0.000000 -0.000001 -0.000000 
0.298619 78.860725 -0.175976 3.062136 -58.329836 6.218431 11.153567 0.293530 -2.417859 8.361915 0.067342 -5.504500 0.000000 0.000000 0.000000 8.384391 0.067484 -5.504033 -20.955333 25.198846 11.976187 -0.203330 25.677142 -3.208816 0.000000 -0.000000 0.000001 -5.897222 -11.434699 -4.094851 0.000000 0.000000 0.000000 -23.105792 9.541862 -36.578180 -0.430861 -43.369099 0.211650 22.768268 -5.683131 16.086397 -0.879752 -7.813308 8.278626 2.373399 19.986131 -2.038324 0.842241 1.254076 2.640822 0.000000 -0.000000 0.000001 13.334323 -1.036136 10.359193 -0.182380 0.317290 -31.248320 -0.144555 0.315398 -32.522704 0.000002 -0.000000 -0.000001 8.499509 -0.328314 -1.009016 0.251439 0.631776 -29.985985 0.430635 0.189311 -44.502528 0.000001 -0.000000 0.000001 6.121512 3.146056 -16.098240 0.080338 0.300940 -30.077161 0.404091 0.798821 -42.144589 0.000001 0.000000 0.000003 -5.734521 7.618925 -13.497798 0.245210 0.257000 -46.515306 0.255654 0.234020 -46.120111 -0.000001 0.000002 -0.000002 -5.087710 10.716904 2.386525 0.000000 0.000000 0.000000 -41.616708 -26.593135 29.801413 27.048676 111.876197 -25.310910 -8.426418 11.265935 -10.149982 0.161846 10.414141 -10.760811 1.389873 -17.409814 3.034350 3.358067 -13.306405 -8.277533 -0.000002 0.000001 -0.000001 19.555199 10.955339 -14.215789 -0.109604 -0.315380 17.606185 -0.080554 -0.277547 22.816078 0.000001 0.000001 0.000001 4.375309 2.490919 -5.767844 0.342253 -0.462200 26.411520 0.457906 0.150053 38.570160 -0.000000 0.000001 0.000001 -7.223206 -10.390285 4.582357 0.110973 -0.091263 25.535028 0.441822 -0.484957 32.636577 0.000002 -0.000001 0.000000 -19.709047 -19.569327 4.721579 0.207400 -0.083921 36.069286 0.253305 -0.063410 35.679556 -0.000001 -0.000000 0.000001 -34.771301 8.715440 27.723068 40.348601 -8.794020 -10.503368 -7.454275 -1.696144 -10.841147 -0.352241 1.211029 0.777638 -0.000000 0.000002 -0.000000 -31.032821 -7.170828 -29.176055 46.919728 5.266387 -6.166965 -19.314805 0.915213 23.122926 -0.325841 -0.997793 -0.819388 -0.000000 -0.000001 -0.000000 
0.311832 78.831779 -0.192717 3.099525 -58.314734 6.219286 11.181198 0.308379 -2.385723 8.418548 0.098053 -5.435012 0.000000 0.000000 0.000000 8.441000 0.098156 -5.434537 -20.687892 25.289873 11.929347 -0.113994 25.894260 -3.222222 0.000000 0.000000 -0.000000 -5.908041 -11.406744 -4.124972 0.000000 0.000000 0.000000 -23.202743 9.567580 -36.508372 -0.784469 -43.550078 0.142518 22.848571 -5.652421 16.178193 -0.879648 -7.742585 8.328716 2.373404 19.986129 -2.038328 0.833687 1.225344 2.626679 0.000001 -0.000000 0.000001 13.268574 -0.549113 10.431567 -0.182226 0.317249 -31.198938 -0.144593 0.315397 -32.508016 -0.000000 0.000000 -0.000001 8.506225 0.092368 -0.917202 0.251022 0.632021 -29.949696 0.430432 0.189450 -44.430244 -0.000001 -0.000001 -0.000002 6.117625 3.143168 -16.039676 0.080065 0.300766 -30.030095 0.403804 0.799140 -42.114735 -0.000000 -0.000000 0.000001 -5.752446 7.603050 -13.427840 0.244820 0.257174 -46.451567 0.255408 0.233804 -46.027463 -0.000001 0.000001 -0.000006 -4.944355 10.745125 2.290183 0.000000 0.000000 0.000000 -41.728139 -26.359942 29.303714 31.240182 112.174642 -29.235686 -7.457831 10.204588 -10.911849 0.253643 10.146807 -10.866889 1.389856 -17.409823 3.034325 3.345245 -13.233925 -8.246502 0.000003 -0.000001 0.000000 19.555679 10.849986 -14.310305 -0.109782 -0.315207 17.427293 -0.081296 -0.277594 22.619771 -0.000002 -0.000000 -0.000002 4.395318 2.480598 -5.884557 0.341317 -0.463238 26.238725 0.456660 0.147810 38.361013 0.000004 0.000001 0.000001 -7.253377 -10.295816 4.470741 0.110980 -0.090335 25.398062 0.440205 -0.484802 32.474681 -0.000000 0.000000 -0.000000 -19.678115 -19.367572 4.682577 0.206960 -0.083439 35.949314 0.252813 -0.063860 35.560772 -0.000001 -0.000001 0.000001 -34.869543 8.691839 27.766329 40.405804 -8.828946 -10.491407 -7.446790 -1.695201 -10.842510 -0.350845 1.211048 0.780817 0.000000 -0.000001 -0.000000 -31.071439 -7.134546 -29.143673 46.979021 5.249658 -6.165184 -19.330076 0.894575 23.189196 -0.317940 -0.997901 -0.837112 0.000000 -0.000001 -0.000000 
0.327623 78.806122 -0.207227 3.142634 -58.308451 6.228618 11.205360 0.323085 -2.355009 8.467457 0.128416 -5.368925 0.000000 0.000000 0.000000 8.489926 0.128553 -5.368456 -20.398454 25.378644 11.886851 -0.024568 26.120527 -3.255902 0.000000 0.000000 -0.000000 -5.914320 -11.396582 -4.145972 0.000000 0.000000 0.000000 -23.347099 9.645232 -36.446767 -1.115199 -43.763402 0.039128 22.975529 -5.590306 16.230222 -0.833030 -7.696165 8.471583 2.373400 19.986129 -2.038328 0.820920 1.183479 2.606139 -0.000000 -0.000000 0.000000 13.148566 -0.152164 10.582372 -0.181319 0.317251 -31.121972 -0.144841 0.315442 -32.439570 0.000001 -0.000000 -0.000002 8.510355 0.379063 -0.790060 0.249859 0.632809 -29.887880 0.429178 0.189908 -44.307642 0.000001 0.000000 -0.000001 6.301399 3.763330 -15.938173 0.079969 0.300725 -29.987474 0.403289 0.799514 -42.063071 0.000000 -0.000000 -0.000001 -5.757948 7.590697 -13.381690 0.244392 0.257152 -46.375936 0.254856 0.233535 -45.921168 -0.000001 0.000002 0.000002 -4.707631 10.766305 2.133767 0.000000 0.000000 0.000000 -41.787227 -26.098332 28.599066 29.847940 111.261186 -27.947345 -9.059259 9.227779 -12.053756 0.390454 9.767109 -10.996386 1.388993 -17.406069 3.036281 3.326571 -13.128599 -8.201355 -0.000000 0.000000 -0.000001 19.537107 10.750114 -14.301146 -0.109898 -0.315081 17.255136 -0.082014 -0.277635 22.425138 -0.000000 0.000001 0.000001 4.410910 2.459046 -5.885788 0.340506 -0.463562 26.084945 0.455427 0.146803 38.156217 0.000004 -0.000001 -0.000001 -7.077111 -10.207427 4.534569 0.110966 -0.089768 25.313728 0.439073 -0.484664 32.361423 -0.000002 -0.000000 -0.000000 -19.588561 -19.216736 4.827905 0.206837 -0.083271 35.913565 0.252664 -0.063482 35.528520 -0.000000 -0.000001 -0.000000 -34.959948 8.669066 27.801990 40.459947 -8.856434 -10.477827 -7.443259 -1.692054 -10.845722 -0.349674 1.211123 0.783452 -0.000000 -0.000002 -0.000000 -31.114510 -7.089438 -29.113647 47.031388 5.237232 -6.163214 -19.335731 0.871521 23.262755 -0.318071 -0.997835 -0.837090 -0.000000 0.000002 0.000000 
0.353748 78.769920 -0.219508 3.263025 -58.354158 6.334145 11.226246 0.348701 -2.313670 8.510473 0.182098 -5.283890 0.000000 0.000000 0.000000 8.532953 0.182197 -5.283413 -20.123276 25.465836 11.827796 0.030781 26.349792 -3.310554 0.000000 0.000000 0.000001 -5.926047 -11.422276 -4.222788 0.000000 0.000000 0.000000 -23.520453 9.796240 -36.349352 -1.367462 -44.014320 -0.092805 23.096464 -5.470020 16.276961 -0.872955 -7.621905 8.622288 2.373402 19.986129 -2.038325 0.802683 1.123894 2.577242 -0.000001 0.000000 0.000001 13.006595 0.275687 10.806254 -0.180264 0.317170 -31.004944 -0.145345 0.315538 -32.305914 -0.000001 0.000001 -0.000001 8.347302 0.679484 -0.626941 0.248360 0.633873 -29.793610 0.427477 0.190371 -44.123596 0.000000 -0.000000 0.000000 6.043471 4.073769 -15.833702 0.079749 0.300840 -29.949686 0.402501 0.799956 -41.986221 -0.000002 -0.000000 -0.000003 -5.551617 8.370404 -13.160981 0.243949 0.257169 -46.287919 0.254178 0.233252 -45.802627 -0.000000 0.000001 -0.000003 -4.380911 10.817092 1.921909 0.000000 0.000000 0.000000 -41.834997 -25.699710 27.556366 33.132278 111.078465 -31.040058 -9.114143 8.509553 -13.520068 0.577962 9.266012 -11.143509 1.384656 -17.394462 3.039664 3.300634 -12.982840 -8.138856 -0.000004 0.000000 -0.000000 19.491888 10.662771 -14.126116 -0.110071 -0.314930 17.115747 -0.082661 -0.277672 22.258275 -0.000002 0.000000 -0.000001 4.419085 2.420013 -5.708411 0.339926 -0.463693 25.978756 0.454459 0.146113 37.983413 0.000001 0.000000 -0.000000 -6.990066 -10.170460 4.791151 0.110985 -0.089822 25.320138 0.438714 -0.484620 32.329495 -0.000002 0.000000 -0.000001 -19.420226 -19.149125 5.234020 0.207141 -0.083671 36.005827 0.253092 -0.062962 35.627633 0.000002 -0.000000 -0.000000 -35.050072 8.634912 27.815752 40.533805 -8.830993 -10.463636 -7.468067 -1.670032 -10.879425 -0.348333 1.211521 0.786542 0.000000 -0.000002 0.000000 -31.257661 -6.983583 -29.104385 47.120799 5.270386 -6.165670 -19.320165 0.842573 23.361289 -0.318034 -0.997889 -0.837096 0.000000 0.000001 -0.000000 
